<svg version="1.1" id="Layer_1" xmlns="http://www.w3.org/2000/svg" xmlns:xlink="http://www.w3.org/1999/xlink" x="0px" y="0px"
	 width="100%" viewBox="0 0 720 608" enable-background="new 0 0 720 608" xml:space="preserve">
<path fill="none" opacity="1.000000" stroke="#000000" stroke-linecap="round" stroke-linejoin="round" stroke-width="9.000000"
	d="
M254.500000,410.500000 
	C254.227005,414.215240 255.262253,417.314240 257.371460,420.582947 
	C262.511414,428.548401 263.477325,438.076141 265.950043,447.013824 
	C269.398315,459.477600 271.855957,472.161560 273.536682,484.995209 
	C273.865875,487.509003 275.033691,489.808807 277.011871,491.486023 
	C286.832214,499.812347 295.008179,509.988495 305.955261,517.069153 
	C307.772858,518.244873 308.916718,520.418091 310.513397,521.986328 
	C321.624481,532.899353 333.745636,542.574585 346.477905,551.531372 
	C354.936981,557.482056 363.794403,556.237000 372.463013,552.903809 
	C384.617554,548.230286 395.852661,541.858704 406.059662,533.573486 
	C417.193970,524.535645 427.760468,514.831299 439.364349,506.315155 
	C445.837402,501.564545 452.231415,496.444275 458.202789,491.163879 
	C463.711212,486.292877 468.092102,479.808624 473.496735,474.496674 
	C481.927460,466.210571 487.445618,455.590393 495.491364,446.991913 
	C496.057373,446.387024 496.356293,445.400238 497.022186,445.041138 
	C503.705383,441.436798 502.285217,435.087311 501.887634,429.507996 
	C501.101868,418.480865 499.455750,407.516174 498.609528,396.491608 
	C498.295227,392.397278 497.492065,388.868103 494.500000,386.000000 
"/>
<path fill="none" opacity="1.000000" stroke="#000000" stroke-linecap="round" stroke-linejoin="round" stroke-width="9.000000"
	d="
M443.500000,35.500000 
	C446.296265,33.593021 448.843933,35.861752 451.492340,36.089146 
	C464.940063,37.243767 478.455872,38.339504 491.470306,42.102737 
	C499.961182,44.557938 508.120209,48.137897 516.511841,50.964874 
	C526.840088,54.444225 535.988586,60.331924 544.868591,66.198875 
	C567.780579,81.336525 585.614441,101.309563 599.212891,125.379730 
	C605.797241,137.034485 610.460327,149.021194 612.973022,162.005219 
	C613.255798,163.466614 613.166626,165.000000 613.250000,166.500000 
"/>
<path fill="none" opacity="1.000000" stroke="#000000" stroke-linecap="round" stroke-linejoin="round" stroke-width="9.000000"
	d="
M470.750000,151.500000 
	C472.099609,153.001724 471.917816,155.057327 471.401611,156.463882 
	C466.955719,168.577515 464.377991,181.227844 460.603882,193.531860 
	C459.438202,197.332199 457.542603,197.604904 454.500671,196.498184 
	C433.429565,188.832077 411.177582,186.099823 389.465942,181.149399 
	C371.632996,177.083359 353.311829,175.103424 335.557312,170.765442 
	C320.327606,167.044342 304.814789,165.605011 289.444214,163.386566 
	C280.802490,162.139328 271.861084,161.369843 263.017395,160.751312 
	C252.367371,160.006454 241.990341,156.686432 231.474396,154.630981 
	C218.623672,152.119125 205.560699,151.600601 192.495926,153.471512 
	C191.026062,153.682007 189.493683,153.590378 188.000977,153.486023 
	C173.134659,152.446823 158.304810,153.890610 143.509842,154.683548 
	C125.461258,155.650848 107.618858,159.075043 90.038193,163.164200 
	C74.024536,166.888901 58.279751,171.822845 42.526550,176.587784 
	C36.282749,178.476379 30.307463,181.295807 25.500000,186.000000 
"/>
<path fill="none" opacity="1.000000" stroke="#000000" stroke-linecap="round" stroke-linejoin="round" stroke-width="7.000000"
	d="
M224.500000,191.000000 
	C224.836929,198.721848 221.892899,205.693268 218.905945,212.458481 
	C211.388229,229.485428 204.140915,246.604416 197.386887,263.955963 
	C192.590317,276.278656 188.496490,288.786743 185.124298,301.532898 
	C184.448898,304.085754 182.424393,306.177307 182.750000,309.000000 
"/>
<path fill="none" opacity="1.000000" stroke="#000000" stroke-linecap="round" stroke-linejoin="round" stroke-width="9.000000"
	d="
M618.000000,329.000000 
	C608.544067,322.678467 598.744690,317.023071 588.582458,311.838409 
	C577.017273,305.938019 566.665527,297.918518 555.824890,290.765350 
	C549.296631,286.457703 542.910706,281.793274 536.028503,277.948975 
	C530.518555,274.871155 528.470581,275.537506 523.381714,279.341736 
	C518.362976,283.093506 517.054138,287.906464 515.871826,293.472778 
	C514.607056,299.426910 512.089050,305.103180 510.553375,311.013885 
	C507.777740,321.696930 505.485626,332.504669 502.058197,343.018982 
	C501.770050,343.902985 501.809845,344.773590 501.020477,345.521606 
	C495.374847,350.871216 496.510590,358.314636 494.779633,364.942444 
	C493.203430,370.977600 496.081787,376.650665 494.658386,382.538300 
	C494.221100,384.346954 493.787598,385.887329 492.473694,386.968018 
	C488.024963,390.626953 486.776764,395.688019 486.000000,401.000000 
"/>
<path fill="none" opacity="1.000000" stroke="#000000" stroke-linecap="round" stroke-linejoin="round" stroke-width="6.000000"
	d="
M240.500000,191.500000 
	C238.525848,202.277084 233.429504,211.923691 229.543472,222.016739 
	C223.936264,236.580170 217.753189,250.912506 213.276871,265.933502 
	C211.626953,271.470062 209.121597,276.860626 207.494034,282.498291 
	C205.519180,289.338898 203.536957,296.177765 201.488190,302.996460 
	C199.880402,308.347473 198.258743,313.697968 196.460220,318.986481 
	C195.591965,321.539551 193.680786,323.265533 191.000000,324.000000 
"/>
<path fill="none" opacity="1.000000" stroke="#000000" stroke-linecap="round" stroke-linejoin="round" stroke-width="8.000000"
	d="
M407.000000,38.000000 
	C406.799652,35.245235 404.659149,36.545334 403.501801,36.573666 
	C396.796265,36.737835 390.232147,38.302235 383.531036,38.867802 
	C377.932343,39.340332 372.113525,41.016239 366.522125,42.579201 
	C352.630402,46.462372 339.281799,51.884773 325.961334,57.406746 
	C319.414154,60.120872 314.434784,64.990204 308.509277,68.515579 
	C289.304504,79.941422 277.824493,98.265541 266.667755,116.602074 
	C261.040375,125.850861 256.866333,136.040695 252.660507,146.067322 
	C251.158875,149.647171 251.500015,154.000000 251.000015,158.000000 
"/>
<path fill="none" opacity="1.000000" stroke="#000000" stroke-linecap="round" stroke-linejoin="round" stroke-width="11.000000"
	d="
M360.500000,326.000000 
	C366.194702,328.490234 367.200989,334.428040 367.662811,339.033813 
	C368.520050,347.583038 370.130829,356.350525 367.080475,365.028290 
	C363.971741,373.872131 359.061401,379.402466 349.496216,379.135101 
	C342.483490,378.939056 335.577759,379.277924 329.500000,375.000000 
"/>
<path fill="none" opacity="1.000000" stroke="#000000" stroke-linecap="round" stroke-linejoin="round" stroke-width="9.000000"
	d="
M19.500000,186.000000 
	C23.204821,184.793747 25.135860,186.397461 27.679798,189.344803 
	C33.189457,195.728134 40.288727,200.411942 48.002052,203.995590 
	C52.604485,206.133881 56.458992,209.640167 61.483509,211.058411 
	C64.423561,211.888306 65.594078,215.202530 67.205589,217.233597 
	C70.722893,221.666687 75.125862,223.968185 80.025986,225.411789 
	C93.578117,229.404312 104.692223,237.562653 116.020866,245.470108 
	C125.390358,252.010056 134.994888,258.220856 143.000000,266.500000 
"/>
<path fill="none" opacity="1.000000" stroke="#000000" stroke-linecap="round" stroke-linejoin="round" stroke-width="8.000000"
	d="
M508.000000,213.000000 
	C509.120392,214.516647 510.814056,215.326370 512.504150,215.435532 
	C519.347961,215.877548 525.384644,219.333542 532.010315,220.438202 
	C535.224609,220.974106 538.187866,222.487549 540.888489,223.740372 
	C553.465454,229.574936 566.437378,234.785828 577.521667,243.472336 
	C584.440857,248.894791 592.161987,253.110428 600.048218,256.899658 
	C603.958618,258.778595 607.262085,261.450317 610.393494,264.124664 
	C618.037231,270.652771 626.489624,276.013824 634.500000,282.000000 
"/>
<path fill="none" opacity="1.000000" stroke="#000000" stroke-linecap="round" stroke-linejoin="round" stroke-width="10.000000"
	d="
M194.000000,333.000000 
	C201.775452,331.571503 202.723785,324.462311 205.406525,318.954468 
	C206.711075,316.276123 207.774368,313.333313 210.087433,311.617889 
	C212.374283,309.921906 213.186676,306.988800 212.772644,305.566162 
	C210.150162,296.555237 215.821304,290.219757 219.616257,283.566315 
	C230.079269,265.222168 241.476303,247.403275 250.002029,228.000900 
	C252.685364,221.894333 256.658691,216.649612 262.565674,213.628387 
	C267.810181,210.946030 269.408051,206.359314 270.964752,201.488739 
	C271.366882,200.230438 271.335571,198.833618 271.500824,197.502106 
	C270.082733,195.751358 267.922241,194.912277 266.011810,195.112656 
	C260.691833,195.670670 255.895447,193.676636 251.028305,192.392685 
	C242.435226,190.125793 233.894165,189.330276 224.989197,189.791595 
	C219.568405,190.072449 213.951340,190.028549 208.514877,189.376053 
	C203.564896,188.781952 198.807755,190.021606 194.003387,189.882797 
	C186.578171,189.668274 179.386368,191.463745 172.006744,191.705688 
	C166.805206,191.876205 161.648682,191.702286 156.503586,191.770477 
	C144.159164,191.934113 131.828766,193.447388 119.501534,194.517685 
	C110.644455,195.286682 101.515160,194.999405 93.065590,197.704849 
	C84.889038,200.322891 76.370697,201.868347 68.462013,205.415298 
	C65.677795,206.663971 63.609352,208.195053 62.500000,211.000000 
"/>
<path fill="none" opacity="1.000000" stroke="#000000" stroke-linecap="round" stroke-linejoin="round" stroke-width="6.000000"
	d="
M204.250000,204.000000 
	C200.900345,214.466660 197.836288,224.991531 192.635544,234.821716 
	C189.716019,240.340073 188.090668,246.556870 186.018845,252.506561 
	C183.304520,260.301392 180.911880,268.203583 177.675201,275.824402 
	C177.285416,276.742218 174.536255,279.680969 178.500000,280.500000 
"/>
<path fill="none" opacity="1.000000" stroke="#000000" stroke-linecap="round" stroke-linejoin="round" stroke-width="9.000000"
	d="
M452.000000,318.000000 
	C450.000000,327.000000 448.117340,336.028351 445.951508,344.988281 
	C444.833649,349.612762 444.023834,353.727356 446.246063,358.615448 
	C448.256500,363.037659 445.631165,368.179016 445.009369,373.001221 
	C443.435425,385.207550 441.200531,397.355194 439.043121,409.418304 
	C437.223877,419.590485 437.698242,430.457214 432.564392,440.034515 
	C430.946381,443.052948 429.914368,446.348602 427.008484,448.511383 
	C424.919128,450.066437 426.076233,452.517548 425.569214,454.517548 
	C422.333466,467.281250 417.342438,479.434662 408.816101,489.341736 
	C399.818970,499.795959 389.723145,509.349518 378.042755,517.064758 
	C369.239441,522.879578 359.837097,523.450012 350.021149,521.398743 
	C347.711548,520.916138 345.460083,519.422424 343.578613,517.902710 
	C342.475159,517.011475 341.436584,515.514771 342.444916,513.472778 
	C345.164520,507.965393 344.376831,501.795715 344.801086,495.985474 
	C345.722443,483.367340 344.407196,470.654083 345.508636,458.000763 
	C345.610657,456.828461 345.712860,455.633820 346.020508,454.505585 
	C347.486664,449.128204 346.046875,447.252106 340.507690,448.053101 
	C335.305206,448.805359 330.139893,449.880066 325.005859,451.026184 
	C315.776215,453.086578 306.860229,452.601349 297.948578,449.132141 
	C294.781189,447.899078 291.067780,447.243164 287.500000,448.500000 
"/>
<path fill="none" opacity="1.000000" stroke="#000000" stroke-linecap="round" stroke-linejoin="round" stroke-width="6.000000"
	d="
M306.000000,203.500000 
	C306.166687,204.833328 306.748535,206.274460 306.434784,207.483063 
	C303.753113,217.812698 301.711456,228.284439 298.651520,238.545197 
	C295.237030,249.994904 291.735962,261.506317 290.500000,273.500000 
"/>
<path fill="none" opacity="1.000000" stroke="#000000" stroke-linecap="round" stroke-linejoin="round" stroke-width="6.000000"
	d="
M441.500000,237.000000 
	C435.096466,253.117523 433.316895,270.412170 428.853638,287.027832 
	C427.779114,291.028137 427.069824,294.531403 424.387756,298.277618 
	C420.883850,303.171783 420.569550,310.049957 424.250000,316.000000 
"/>
<path fill="none" opacity="1.000000" stroke="#000000" stroke-linecap="round" stroke-linejoin="round" stroke-width="7.000000"
	d="
M112.500000,303.500000 
	C116.655937,307.288879 122.003578,308.118500 126.965919,307.294708 
	C133.870956,306.148468 139.982819,309.066101 146.502670,309.455170 
	C152.749878,309.828003 158.570053,312.121857 164.425674,313.764893 
	C171.484268,315.745422 178.344788,318.649536 185.505600,320.478058 
	C191.956497,322.125336 194.314102,333.593475 191.600113,341.036499 
	C185.839783,356.834106 178.422241,372.022125 174.313644,388.453400 
	C173.636337,391.162140 173.753586,393.472473 174.000000,396.000000 
"/>
<path fill="none" opacity="1.000000" stroke="#000000" stroke-linecap="round" stroke-linejoin="round" stroke-width="8.000000"
	d="
M525.000000,281.000000 
	C529.384644,285.169220 530.108887,291.459656 533.802612,296.155273 
	C535.284058,298.038452 533.882568,301.597992 534.243958,304.531555 
	C535.807007,317.220398 540.532959,329.079132 543.056946,341.488434 
	C544.223267,347.222931 545.922852,352.855530 547.541809,358.487976 
	C548.109314,360.462494 548.434692,362.114105 546.505554,363.507690 
	C535.906921,371.163940 526.681396,380.575043 515.606628,387.666565 
	C514.379089,388.452606 513.474304,388.089508 512.500000,388.500000 
"/>
<path fill="none" opacity="1.000000" stroke="#000000" stroke-linecap="round" stroke-linejoin="round" stroke-width="7.000000"
	d="
M460.500000,136.500000 
	C456.902466,141.888046 459.138062,148.221069 457.639771,154.036011 
	C454.958771,164.441162 453.391449,175.116928 450.608246,185.528931 
	C449.891754,188.209412 450.670502,191.265152 449.500000,194.000000 
"/>
<path fill="none" opacity="1.000000" stroke="#000000" stroke-linecap="round" stroke-linejoin="round" stroke-width="6.000000"
	d="
M510.500000,265.000000 
	C505.839111,277.076111 501.868256,289.381744 499.093842,302.020599 
	C498.185059,306.160522 496.696472,310.168762 496.396545,314.492828 
	C496.207275,317.221405 494.941162,319.831055 492.000000,321.000000 
"/>
<path fill="none" opacity="1.000000" stroke="#000000" stroke-linecap="round" stroke-linejoin="round" stroke-width="8.000000"
	d="
M471.500000,246.000000 
	C469.021606,251.407684 468.704773,257.384705 467.097717,263.027832 
	C466.691284,264.455139 466.497437,265.769104 465.536530,267.027893 
	C460.713654,273.345459 459.466461,281.498199 454.982208,287.987701 
	C447.672760,298.565674 439.513031,308.500336 428.807922,315.714996 
	C426.811707,317.060364 423.719421,319.026733 420.500000,318.750000 
"/>
<path fill="none" opacity="1.000000" stroke="#000000" stroke-linecap="round" stroke-linejoin="round" stroke-width="7.000000"
	d="
M294.000000,213.000000 
	C292.000000,221.333344 290.087097,229.688828 287.974915,237.993622 
	C285.960297,245.914825 284.566315,253.945114 283.216431,261.994354 
	C282.685486,265.160278 280.701355,267.231171 277.500000,268.000000 
"/>
<path fill="none" opacity="1.000000" stroke="#000000" stroke-linecap="round" stroke-linejoin="round" stroke-width="7.000000"
	d="
M405.000000,236.000000 
	C399.509521,239.064621 399.603973,245.214706 397.645630,250.058868 
	C393.342804,260.702393 389.906403,271.693359 385.964325,282.486969 
	C384.369171,286.854614 380.640991,289.834930 377.867157,293.396545 
	C375.891663,295.933044 374.797058,298.551575 373.985199,301.495911 
	C372.877747,305.512268 371.666626,309.500000 370.499969,313.500000 
"/>
<path fill="none" opacity="1.000000" stroke="#000000" stroke-linecap="round" stroke-linejoin="round" stroke-width="6.000000"
	d="
M451.000000,239.500000 
	C448.350403,250.736420 444.175354,261.570557 442.234070,272.997284 
	C441.070648,279.845337 439.750000,286.666656 438.500000,293.500000 
"/>
<path fill="none" opacity="1.000000" stroke="#000000" stroke-linecap="round" stroke-linejoin="round" stroke-width="9.000000"
	d="
M358.000000,318.000000 
	C360.681030,321.635620 360.644257,324.837524 357.595856,328.578125 
	C353.354370,333.782654 352.236023,340.655762 349.180115,346.592712 
	C343.937653,356.777771 336.778259,365.387573 329.487152,373.989105 
	C327.815735,375.960907 321.449646,375.163727 319.480499,373.017914 
	C313.734161,366.755951 312.887634,358.308807 309.531097,350.985748 
	C308.657806,349.080444 308.166656,347.000000 307.500000,345.000000 
"/>
<path fill="none" opacity="1.000000" stroke="#000000" stroke-linecap="round" stroke-linejoin="round" stroke-width="9.000000"
	d="
M552.500000,228.000000 
	C555.430786,218.276184 557.891296,208.441406 560.078735,198.517349 
	C561.889893,190.299896 562.223206,190.317947 554.474243,186.046768 
	C553.121521,185.301208 552.744690,184.059341 552.017944,182.987823 
	C550.027161,180.052521 547.468750,177.921234 543.995605,177.016769 
	C543.527405,176.894852 542.610229,177.136124 542.555847,176.980484 
	C539.784729,169.044968 530.190552,169.194855 526.019043,162.987198 
	C524.840454,161.233383 523.055115,161.152985 521.528870,161.598907 
	C519.898499,162.075287 519.114197,163.676300 518.988403,165.499207 
	C517.925659,180.904221 513.569824,195.540024 508.425995,209.973633 
	C508.174194,210.680222 508.110626,211.319321 507.996094,211.999023 
	C506.915771,213.329727 505.255249,213.359436 504.022156,212.935516 
	C489.263153,207.861588 474.002380,204.160110 460.000000,197.000000 
"/>
<path fill="none" opacity="1.000000" stroke="#000000" stroke-linecap="round" stroke-linejoin="round" stroke-width="8.000000"
	d="
M272.500000,438.500000 
	C276.134583,438.722015 279.002930,441.009033 281.894745,442.681915 
	C284.865875,444.400665 287.337189,447.311768 287.039001,451.502777 
	C286.812988,454.678619 288.984802,457.109741 290.586639,459.440460 
	C297.213440,469.082428 304.267944,478.429626 310.946381,488.037262 
	C313.361969,491.512329 316.455261,493.183350 320.500000,493.500000 
"/>
<path fill="none" opacity="1.000000" stroke="#000000" stroke-linecap="round" stroke-linejoin="round" stroke-width="6.000000"
	d="
M217.000000,326.000000 
	C213.458267,328.060120 211.717743,331.626404 210.063629,335.030914 
	C203.584763,348.365814 194.151703,359.991455 188.000000,373.500000 
"/>
<path fill="none" opacity="1.000000" stroke="#000000" stroke-linecap="round" stroke-linejoin="round" stroke-width="8.000000"
	d="
M346.000000,218.000000 
	C334.775787,217.496704 327.024292,222.580261 321.946686,232.472641 
	C318.936310,238.337601 316.294006,244.557816 310.531158,248.545044 
	C309.803131,249.048767 308.941772,250.282547 309.086945,250.981934 
	C310.438232,257.490997 305.978180,262.082214 303.295135,266.885559 
	C298.927856,274.704224 294.408997,282.427856 290.462524,290.481628 
	C289.204193,293.049652 287.846161,295.731812 284.993011,296.984100 
	C280.975250,298.747681 283.363129,302.869232 281.750000,305.500000 
"/>
<path fill="none" opacity="1.000000" stroke="#000000" stroke-linecap="round" stroke-linejoin="round" stroke-width="7.000000"
	d="
M430.500000,126.500000 
	C430.336914,136.690521 425.570709,145.772980 423.537903,155.507919 
	C422.463104,160.654999 420.424103,165.488922 419.134430,170.534363 
	C418.644165,172.452393 417.808014,172.426697 416.500000,172.500000 
"/>
<path fill="none" opacity="1.000000" stroke="#000000" stroke-linecap="round" stroke-linejoin="round" stroke-width="8.000000"
	d="
M443.500000,353.500000 
	C436.418213,355.782898 435.105499,362.958221 431.674500,368.116089 
	C426.823242,375.408875 421.417023,382.276367 416.525757,389.517395 
	C415.152863,391.549866 414.012390,393.752838 412.841095,395.913879 
	C410.777344,399.721344 413.205078,402.213623 415.503387,402.244110 
	C421.655212,402.325714 424.511719,407.014984 428.414520,410.107849 
	C430.958618,412.123962 433.371338,414.072540 436.500000,415.000000 
"/>
<path fill="none" opacity="1.000000" stroke="#000000" stroke-linecap="round" stroke-linejoin="round" stroke-width="6.000000"
	d="
M386.500000,220.500000 
	C382.666656,231.833328 378.876404,243.181519 374.978333,254.492538 
	C373.466278,258.880035 374.032501,264.076599 370.000000,267.500000 
"/>
<path fill="none" opacity="1.000000" stroke="#000000" stroke-linecap="round" stroke-linejoin="round" stroke-width="9.000000"
	d="
M461.000000,490.000000 
	C465.773346,493.458588 471.828125,492.657471 477.051178,494.879730 
	C482.592438,497.237366 486.257690,500.645844 488.078979,506.475342 
	C489.884613,512.254822 492.333344,517.833313 494.500000,523.500000 
"/>
<path fill="none" opacity="1.000000" stroke="#000000" stroke-linecap="round" stroke-linejoin="round" stroke-width="8.000000"
	d="
M385.500000,493.000000 
	C380.246521,492.827332 377.340210,488.882385 374.596466,485.423462 
	C367.759369,476.804230 361.009735,468.058960 355.578735,458.455475 
	C353.606995,454.968811 350.951599,452.662720 347.500000,451.000000 
"/>
<path fill="none" opacity="1.000000" stroke="#000000" stroke-linecap="round" stroke-linejoin="round" stroke-width="7.000000"
	d="
M532.000000,169.500000 
	C529.791504,172.854126 530.051880,176.794403 529.549866,180.506744 
	C527.877136,192.875275 524.020935,204.710648 521.000000,216.750000 
"/>
<path fill="none" opacity="1.000000" stroke="#000000" stroke-linecap="round" stroke-linejoin="round" stroke-width="8.000000"
	d="
M489.500000,157.500000 
	C491.535583,174.109177 490.708099,190.602692 487.500000,207.000000 
"/>
<path fill="none" opacity="1.000000" stroke="#000000" stroke-linecap="round" stroke-linejoin="round" stroke-width="6.000000"
	d="
M574.000000,304.500000 
	C570.636658,307.601593 569.963440,312.225891 568.787964,316.087646 
	C566.473450,323.691223 563.259399,331.058777 561.906311,338.984009 
	C561.471863,341.528442 561.480957,344.015717 561.586243,346.496338 
	C561.662537,348.294250 563.054688,348.502625 564.500000,347.500000 
"/>
<path fill="none" opacity="1.000000" stroke="#000000" stroke-linecap="round" stroke-linejoin="round" stroke-width="8.000000"
	d="
M415.000000,403.000000 
	C414.110291,409.497162 416.203796,415.677826 416.929260,422.008118 
	C417.733643,429.026581 420.958679,435.440918 421.571442,442.493805 
	C421.751556,444.566772 423.509369,446.060089 425.000000,447.500000 
"/>
<path fill="none" opacity="1.000000" stroke="#000000" stroke-linecap="round" stroke-linejoin="round" stroke-width="7.000000"
	d="
M482.000000,145.000000 
	C478.697296,153.229095 480.461945,162.045181 479.056122,170.509323 
	C477.790100,178.131805 477.067657,185.843094 475.964203,193.494843 
	C475.564484,196.266586 472.448792,197.661209 472.000000,200.500000 
"/>
<path fill="none" opacity="1.000000" stroke="#000000" stroke-linecap="round" stroke-linejoin="round" stroke-width="7.000000"
	d="
M341.750000,123.000000 
	C340.891907,129.740128 338.755524,136.110611 336.592896,142.531296 
	C333.716461,151.071182 331.500000,159.833328 329.000000,168.500000 
"/>
<path fill="none" opacity="1.000000" stroke="#000000" stroke-linecap="round" stroke-linejoin="round" stroke-width="7.000000"
	d="
M317.500000,205.000000 
	C316.448639,213.398987 313.605621,221.362106 311.657745,229.537582 
	C310.408386,234.781479 306.559662,239.580887 308.440552,245.518829 
	C308.803101,246.663406 309.122406,247.688797 310.000000,248.500000 
"/>
<path fill="none" opacity="1.000000" stroke="#000000" stroke-linecap="round" stroke-linejoin="round" stroke-width="8.000000"
	d="
M282.000000,377.000000 
	C277.437531,371.821533 270.294067,370.494690 265.328735,365.676483 
	C263.184113,363.595428 260.672760,361.669434 258.530273,359.470490 
	C256.899811,357.797119 255.104858,356.397308 252.985886,355.534668 
	C250.098557,354.359314 248.237656,354.924835 247.401001,358.476685 
	C246.552536,362.078705 247.154556,365.324768 248.543350,368.480927 
	C250.192459,372.228638 252.260239,375.790009 253.982712,379.508026 
	C259.475555,391.364532 277.847046,388.367798 282.533997,380.520294 
	C284.516357,377.201111 290.131165,375.999054 294.470886,378.061279 
	C297.749390,379.619171 297.817017,382.908508 297.474884,385.997223 
	C296.151825,397.941376 294.496765,409.835144 291.500000,421.500000 
"/>
<path fill="none" opacity="1.000000" stroke="#000000" stroke-linecap="round" stroke-linejoin="round" stroke-width="7.000000"
	d="
M504.000000,163.000000 
	C503.200836,174.922180 501.982758,186.765121 499.746307,198.546753 
	C499.053589,202.196014 497.819336,205.770187 497.500000,209.500000 
"/>
<path fill="none" opacity="1.000000" stroke="#000000" stroke-linecap="round" stroke-linejoin="round" stroke-width="6.000000"
	d="
M155.000000,264.500000 
	C152.740173,276.929871 148.470001,288.753815 143.897995,300.460175 
	C143.181396,302.294983 142.635315,304.155273 142.000000,306.000000 
"/>
<path fill="none" opacity="1.000000" stroke="#000000" stroke-linecap="round" stroke-linejoin="round" stroke-width="7.000000"
	d="
M417.500031,123.500008 
	C413.833344,137.500000 410.166687,151.500000 406.500031,165.500000 
"/>
<path fill="none" opacity="1.000000" stroke="#000000" stroke-linecap="round" stroke-linejoin="round" stroke-width="6.000000"
	d="
M387.500000,248.000000 
	C382.492828,258.627441 381.146576,270.238190 378.496033,281.499054 
	C377.820190,284.370300 379.752808,286.521484 380.500000,289.000000 
"/>
<path fill="none" opacity="1.000000" stroke="#000000" stroke-linecap="round" stroke-linejoin="round" stroke-width="8.000000"
	d="
M536.000000,120.000000 
	C538.209961,133.040878 534.220642,144.648331 527.375610,155.420959 
	C526.210571,157.254471 525.184265,159.177872 524.000000,161.000000 
"/>
<path fill="none" opacity="1.000000" stroke="#000000" stroke-linecap="round" stroke-linejoin="round" stroke-width="7.000000"
	d="
M401.000000,120.500000 
	C400.931213,134.192825 396.306030,146.956116 393.127502,160.030991 
	C392.419006,162.945374 389.954041,165.260986 390.500000,168.500000 
"/>
<path fill="none" opacity="1.000000" stroke="#000000" stroke-linecap="round" stroke-linejoin="round" stroke-width="7.000000"
	d="
M173.500000,241.500000 
	C176.034409,245.128616 173.958527,248.771210 172.851517,251.948257 
	C169.779755,260.764130 166.055710,269.356628 162.452332,277.980072 
	C161.743149,279.677307 159.774933,281.302399 163.500000,281.500000 
"/>
<path fill="none" opacity="1.000000" stroke="#000000" stroke-linecap="round" stroke-linejoin="round" stroke-width="8.000000"
	d="
M310.000000,453.500000 
	C310.334198,460.762207 314.551483,466.757263 316.666321,473.447418 
	C318.702667,479.889252 322.689575,485.754028 321.039978,493.009094 
	C320.904053,493.606934 321.143829,494.480133 321.529022,494.977509 
	C325.816284,500.513184 330.158936,506.006104 334.503723,511.497070 
	C336.285614,513.749023 338.644745,514.717834 341.500000,514.500000 
"/>
<path fill="none" opacity="1.000000" stroke="#000000" stroke-linecap="round" stroke-linejoin="round" stroke-width="8.000000"
	d="
M500.000000,260.000000 
	C496.961945,268.721222 494.966919,277.760376 492.333313,286.599304 
	C491.043884,290.926727 490.248657,294.608154 486.657043,297.683411 
	C485.490448,298.682281 485.558197,302.000610 486.100250,303.972443 
	C489.256592,315.453339 491.748383,326.957855 491.084259,339.004639 
	C490.854736,343.168274 491.387329,347.459473 495.000000,350.500000 
"/>
<path fill="none" opacity="1.000000" stroke="#000000" stroke-linecap="round" stroke-linejoin="round" stroke-width="7.000000"
	d="
M486.500000,94.500000 
	C479.292633,95.909576 476.710663,101.978622 474.115021,107.553551 
	C471.275909,113.651413 469.281128,120.148491 467.063019,126.521935 
	C466.770599,127.362167 467.333313,128.500000 467.500000,129.500000 
"/>
<path fill="none" opacity="1.000000" stroke="#000000" stroke-linecap="round" stroke-linejoin="round" stroke-width="9.000000"
	d="
M436.000000,125.000000 
	C440.819061,128.938385 446.587830,130.541519 452.478973,132.080475 
	C457.104950,133.288925 461.466461,135.454010 465.936249,137.166428 
	C478.618134,142.024963 491.085327,147.478302 503.461884,153.084183 
	C509.147766,155.659561 515.405884,157.339264 520.000000,162.000000 
"/>
<path fill="none" opacity="1.000000" stroke="#000000" stroke-linecap="round" stroke-linejoin="round" stroke-width="6.000000"
	d="
M371.000000,116.500000 
	C370.799500,129.559555 367.355286,142.015472 364.046997,154.512436 
	C363.073730,158.188858 360.055298,161.302963 361.000000,165.500000 
"/>
<path fill="none" opacity="1.000000" stroke="#000000" stroke-linecap="round" stroke-linejoin="round" stroke-width="7.000000"
	d="
M376.500000,217.500000 
	C373.500000,227.333328 370.398926,237.137604 367.557739,247.016602 
	C366.629547,250.244034 365.063873,252.633514 362.000000,254.000000 
"/>
<path fill="none" opacity="1.000000" stroke="#000000" stroke-linecap="round" stroke-linejoin="round" stroke-width="7.000000"
	d="
M553.500000,186.000000 
	C548.970764,193.185715 548.656189,201.714874 546.036682,209.512314 
	C544.476318,214.156693 544.148010,219.202347 541.500000,223.500000 
"/>
<path fill="none" opacity="1.000000" stroke="#000000" stroke-linecap="round" stroke-linejoin="round" stroke-width="8.000000"
	d="
M386.000000,434.000000 
	C389.195068,434.030060 391.381683,435.864594 393.518311,437.981506 
	C400.497467,444.896149 406.669739,452.521362 412.944702,460.046112 
	C415.037872,462.556244 417.306519,464.373535 420.500000,465.000000 
"/>
<path fill="none" opacity="1.000000" stroke="#000000" stroke-linecap="round" stroke-linejoin="round" stroke-width="11.000000"
	d="
M405.500000,227.000000 
	C404.600220,231.210098 404.691498,234.753052 407.792236,238.664688 
	C411.309387,243.101608 414.848022,248.139221 414.525238,254.501282 
	C414.500366,254.991562 414.723419,255.578568 415.016327,255.988358 
	C420.506042,263.668945 417.010132,272.789642 419.066742,280.983246 
	C420.525665,286.795593 419.036682,293.267822 423.000000,298.500000 
"/>
<path fill="none" opacity="1.000000" stroke="#000000" stroke-linecap="round" stroke-linejoin="round" stroke-width="8.000000"
	d="
M385.000000,118.500000 
	C383.241364,132.837585 380.415192,146.974228 377.000000,161.000000 
"/>
<path fill="none" opacity="1.000000" stroke="#000000" stroke-linecap="round" stroke-linejoin="round" stroke-width="9.000000"
	d="
M443.000000,37.000000 
	C441.273041,33.494133 438.256897,32.659855 435.048553,34.107597 
	C432.375793,35.313667 429.758820,35.485828 427.000000,35.501144 
	C420.298889,35.538357 413.539886,34.809441 407.000000,37.000000 
"/>
<path fill="none" opacity="1.000000" stroke="#000000" stroke-linecap="round" stroke-linejoin="round" stroke-width="8.000000"
	d="
M212.500000,310.000000 
	C216.325134,313.528473 217.759506,317.883881 217.000839,323.000122 
	C216.783020,324.469086 217.050446,326.036652 218.048996,326.946228 
	C220.768402,329.423279 221.108231,332.803589 222.000244,335.999939 
	C223.020233,339.654907 222.095978,342.130859 219.881302,345.734344 
	C214.731003,354.114380 208.870255,362.120483 204.414459,370.956879 
	C203.452423,372.864777 203.653671,374.634003 203.500000,376.500000 
"/>
<path fill="none" opacity="1.000000" stroke="#000000" stroke-linecap="round" stroke-linejoin="round" stroke-width="6.000000"
	d="
M461.500000,243.000000 
	C458.333344,254.166672 455.166687,265.333344 452.000000,276.500000 
"/>
<path fill="none" opacity="1.000000" stroke="#000000" stroke-linecap="round" stroke-linejoin="round" stroke-width="8.000000"
	d="
M525.000000,328.500000 
	C525.208923,333.616730 526.603577,338.782501 523.130127,343.593964 
	C522.260071,344.799194 522.420166,347.427887 523.106873,348.951843 
	C525.318909,353.861328 522.988892,356.314148 519.033386,358.558807 
	C516.031738,360.262207 513.284912,362.435394 510.510254,364.513702 
	C505.088959,368.574463 504.980194,372.345856 509.985779,377.015228 
	C510.972473,377.935699 512.422668,378.459747 512.750000,380.000000 
"/>
<path fill="none" opacity="1.000000" stroke="#000000" stroke-linecap="round" stroke-linejoin="round" stroke-width="9.000000"
	d="
M412.000000,400.000000 
	C404.860565,403.034027 399.908417,408.890869 394.614441,414.115967 
	C390.103180,418.568512 384.299133,422.037262 381.971741,428.489807 
	C381.414154,430.035645 379.633392,429.393524 378.487732,429.975830 
	C367.816803,435.399567 356.593781,439.865204 347.500000,448.000000 
"/>
<path fill="none" opacity="1.000000" stroke="#000000" stroke-linecap="round" stroke-linejoin="round" stroke-width="9.000000"
	d="
M421.500000,122.000000 
	C419.248352,122.938049 417.243164,122.688942 414.959442,121.583801 
	C410.904816,119.621666 406.789673,118.243027 401.947266,119.840073 
	C398.891266,120.847931 395.981720,117.842972 392.498779,117.877419 
	C382.725555,117.974075 373.208038,114.822327 363.497345,114.669891 
	C354.639008,114.530846 345.764557,114.327560 337.024170,113.295319 
	C330.467316,112.520966 324.599457,114.215736 318.500427,115.501999 
	C315.831238,116.064926 313.229431,114.149109 310.487122,115.473351 
	C304.504028,118.362526 297.727295,116.985474 291.284485,119.432579 
	C286.263397,121.339691 280.167969,122.355736 274.485657,123.423607 
	C271.549561,123.975372 268.653534,122.930824 266.000000,121.500000 
"/>
<path fill="none" opacity="1.000000" stroke="#000000" stroke-linecap="round" stroke-linejoin="round" stroke-width="8.000000"
	d="
M291.000000,340.000000 
	C290.339264,351.498535 295.627411,361.507294 298.971344,372.009125 
	C299.711365,374.333221 301.738342,373.002808 303.000000,373.750000 
"/>
<path fill="none" opacity="1.000000" stroke="#000000" stroke-linecap="round" stroke-linejoin="round" stroke-width="8.000000"
	d="
M440.000000,129.000000 
	C438.132660,132.448364 438.167297,136.193863 437.921783,139.994949 
	C437.197998,151.201767 433.799042,161.849854 430.523590,172.507248 
	C430.181580,173.620041 430.166656,174.833328 430.000000,176.000000 
"/>
<path fill="none" opacity="1.000000" stroke="#000000" stroke-linecap="round" stroke-linejoin="round" stroke-width="9.000000"
	d="
M382.000000,429.500000 
	C382.667114,431.388550 384.955963,432.015717 385.196106,434.651672 
	C383.487915,438.417145 385.118408,442.669434 385.968109,447.006256 
	C387.877777,456.753143 386.487335,466.686279 387.444824,476.505371 
	C387.968445,481.875580 389.216919,487.377350 386.079895,492.548462 
	C385.522217,493.467743 385.857208,495.010498 386.983215,496.018768 
	C388.334686,497.228973 387.973816,498.931732 388.000000,500.500000 
"/>
<path fill="none" opacity="1.000000" stroke="#000000" stroke-linecap="round" stroke-linejoin="round" stroke-width="7.000000"
	d="
M542.000000,177.500000 
	C537.805420,182.306366 539.436279,188.537384 538.192566,194.043503 
	C536.680542,200.737442 534.925354,207.493149 534.924744,214.500000 
	C534.924561,216.333359 533.999939,218.166656 533.499939,219.999985 
"/>
<path fill="none" opacity="1.000000" stroke="#000000" stroke-linecap="round" stroke-linejoin="round" stroke-width="8.000000"
	d="
M543.500000,137.500000 
	C545.924866,149.172592 542.045227,159.344101 536.000000,169.000000 
"/>
<path fill="none" opacity="1.000000" stroke="#000000" stroke-linecap="round" stroke-linejoin="round" stroke-width="8.000000"
	d="
M282.500000,209.500000 
	C283.254608,215.881256 280.574066,221.793686 279.781891,227.972031 
	C279.184052,232.634689 278.014435,237.639008 273.076202,240.625992 
	C270.638428,242.100525 271.100891,245.501740 271.576172,247.985428 
	C274.414459,262.817871 279.748077,277.163483 280.069702,292.498535 
	C280.113525,294.588135 281.570557,296.400909 283.000000,298.000000 
"/>
<path fill="none" opacity="1.000000" stroke="#000000" stroke-linecap="round" stroke-linejoin="round" stroke-width="8.000000"
	d="
M429.000000,232.500000 
	C426.585236,237.912216 426.053284,243.765625 424.988556,249.497879 
	C424.118835,254.180374 423.365784,258.962036 418.500000,261.500000 
"/>
<path fill="none" opacity="1.000000" stroke="#000000" stroke-linecap="round" stroke-linejoin="round" stroke-width="8.000000"
	d="
M222.000000,371.000000 
	C218.642197,370.926575 215.767822,372.231171 212.984406,373.975128 
	C210.568008,375.489136 208.148773,376.967285 204.993469,376.549316 
	C202.026474,376.156281 200.357788,378.639221 199.093674,380.561584 
	C194.691772,387.255585 187.650040,390.558624 181.465454,394.951355 
	C179.940704,396.034363 178.215729,397.169189 175.966919,396.067535 
	C174.816620,395.504028 173.655457,396.310913 173.000000,397.500000 
"/>
<path fill="none" opacity="1.000000" stroke="#000000" stroke-linecap="round" stroke-linejoin="round" stroke-width="8.000000"
	d="
M193.500000,219.500000 
	C192.529541,219.843918 191.259705,218.712936 190.510406,220.006027 
	C187.477280,225.240479 182.518707,228.699387 178.622391,233.108154 
	C175.417786,236.734192 173.049255,240.368835 168.222137,242.920273 
	C162.447433,245.972595 157.993774,251.879852 153.598557,257.083252 
	C149.466370,261.975281 143.934402,265.519867 140.519592,271.012177 
	C137.134827,276.456116 131.585068,279.787292 127.560387,284.551025 
	C123.209938,289.700317 118.781166,294.737183 114.133232,299.626648 
	C111.831894,302.047577 110.847015,305.685333 106.500000,305.000000 
"/>
<path fill="none" opacity="1.000000" stroke="#000000" stroke-linecap="round" stroke-linejoin="round" stroke-width="8.000000"
	d="
M411.000000,320.500000 
	C408.853546,330.984436 409.140045,342.226685 401.500000,351.000000 
"/>
<path fill="none" opacity="1.000000" stroke="#000000" stroke-linecap="round" stroke-linejoin="round" stroke-width="7.000000"
	d="
M327.500000,127.500000 
	C326.724091,134.067734 324.477905,140.257294 322.453461,146.484879 
	C320.957428,151.086975 319.629578,155.699051 319.000000,160.500000 
"/>
<path fill="none" opacity="1.000000" stroke="#000000" stroke-linecap="round" stroke-linejoin="round" stroke-width="7.000000"
	d="
M448.500000,132.500000 
	C446.973358,148.525330 444.781677,164.435089 440.562714,180.016983 
	C440.202759,181.346405 440.406097,182.658218 438.500000,182.500000 
"/>
<path fill="none" opacity="1.000000" stroke="#000000" stroke-linecap="round" stroke-linejoin="round" stroke-width="7.000000"
	d="
M558.000000,144.500000 
	C557.640015,151.307831 556.841309,158.025314 554.533081,164.511780 
	C553.450562,167.553772 552.367004,170.367004 548.500000,170.500000 
"/>
<path fill="none" opacity="1.000000" stroke="#000000" stroke-linecap="round" stroke-linejoin="round" stroke-width="7.000000"
	d="
M359.000000,115.500000 
	C358.297333,125.560280 353.679840,134.649414 351.866699,144.475403 
	C350.154114,153.756607 347.333344,162.833344 345.000031,172.000000 
"/>
<path fill="none" opacity="1.000000" stroke="#000000" stroke-linecap="round" stroke-linejoin="round" stroke-width="6.000000"
	d="
M136.500000,278.000000 
	C139.732681,281.166656 137.593658,284.204651 136.593018,287.528015 
	C134.765930,293.596191 133.500000,299.833344 132.000000,306.000000 
"/>
<path fill="none" opacity="1.000000" stroke="#000000" stroke-linecap="round" stroke-linejoin="round" stroke-width="6.000000"
	d="
M363.500000,213.000000 
	C362.500000,218.500000 361.582001,224.016632 360.471008,229.494110 
	C359.738983,233.103058 359.803986,237.221405 355.500000,239.000000 
"/>
<path fill="none" opacity="1.000000" stroke="#000000" stroke-linecap="round" stroke-linejoin="round" stroke-width="9.000000"
	d="
M272.000000,197.500000 
	C274.833344,196.450760 277.445801,196.431046 280.548615,197.332764 
	C286.041931,198.929230 291.834869,199.491531 297.499054,200.505234 
	C299.171783,200.804611 301.020721,200.815353 302.456665,201.581238 
	C304.685120,202.769836 306.651459,203.691620 309.030914,202.044678 
	C309.481659,201.732712 310.459991,201.761215 310.980286,202.037170 
	C315.846680,204.618286 321.700439,202.754028 326.488770,205.519440 
	C327.805725,206.280014 329.110077,206.112427 330.501465,206.022659 
	C333.928131,205.801590 337.262543,206.330017 340.501678,207.495377 
	C347.059662,209.854797 347.233612,210.793732 346.645172,217.512711 
	C346.238281,222.158661 346.381866,226.832275 349.837463,231.130676 
	C353.049683,235.126434 355.072052,240.077652 357.205719,244.909149 
	C360.693207,252.806229 363.134003,261.148956 367.749084,268.654266 
	C369.745422,271.900848 368.764221,276.878937 369.559052,280.988586 
	C370.575867,286.245819 369.082581,292.497498 375.000000,296.000000 
"/>
<path fill="none" opacity="1.000000" stroke="#000000" stroke-linecap="round" stroke-linejoin="round" stroke-width="6.000000"
	d="
M565.500000,307.500000 
	C563.738403,307.310089 561.978577,307.435272 561.529724,309.506439 
	C559.378845,319.431000 555.204163,328.837219 554.000000,339.000000 
"/>
<path fill="none" opacity="1.000000" stroke="#000000" stroke-linecap="round" stroke-linejoin="round" stroke-width="9.000000"
	d="
M286.500000,422.750000 
	C296.073547,422.568237 305.592102,422.720062 315.028534,424.875031 
	C317.627167,425.468506 317.620728,426.651855 317.500000,428.500000 
"/>
<path fill="none" opacity="1.000000" stroke="#000000" stroke-linecap="round" stroke-linejoin="round" stroke-width="7.000000"
	d="
M179.000000,192.500000 
	C180.995026,195.915833 179.629898,198.695114 177.527863,201.520721 
	C173.276154,207.235901 170.559601,213.721207 168.500000,220.500000 
"/>
<path fill="none" opacity="1.000000" stroke="#000000" stroke-linecap="round" stroke-linejoin="round" stroke-width="7.000000"
	d="
M582.500000,310.000000 
	C579.464722,315.949646 578.480469,322.648376 575.244812,328.632355 
	C573.502197,331.855133 571.672791,333.839447 568.500000,335.000000 
"/>
<path fill="none" opacity="1.000000" stroke="#000000" stroke-linecap="round" stroke-linejoin="round" stroke-width="6.000000"
	d="
M306.000000,294.500000 
	C305.390259,301.692657 304.869080,308.892242 303.551666,316.009552 
	C303.348389,317.107727 303.833344,318.333344 304.000031,319.500000 
"/>
<path fill="none" opacity="1.000000" stroke="#000000" stroke-linecap="round" stroke-linejoin="round" stroke-width="7.000000"
	d="
M303.500000,118.500000 
	C303.359558,128.871918 300.962555,138.792511 297.500000,148.500000 
"/>
<path fill="none" opacity="1.000000" stroke="#000000" stroke-linecap="round" stroke-linejoin="round" stroke-width="7.000000"
	d="
M317.500000,116.500000 
	C317.200592,127.385307 314.311768,137.738022 310.988800,147.996368 
	C310.239624,150.309052 308.910400,152.450592 309.000000,155.000000 
"/>
<path fill="none" opacity="1.000000" stroke="#000000" stroke-linecap="round" stroke-linejoin="round" stroke-width="8.000000"
	d="
M266.000000,212.500000 
	C268.313873,216.011475 268.549866,219.918137 268.563843,223.999786 
	C268.583313,229.679031 268.716217,235.449600 273.000000,240.000000 
"/>
<path fill="none" opacity="1.000000" stroke="#000000" stroke-linecap="round" stroke-linejoin="round" stroke-width="6.000000"
	d="
M258.500000,195.500000 
	C259.019653,200.138840 256.632629,203.971436 254.982620,207.992874 
	C253.498810,211.609238 252.988281,215.111664 255.500000,218.500000 
"/>
<path fill="none" opacity="1.000000" stroke="#000000" stroke-linecap="round" stroke-linejoin="round" stroke-width="6.000000"
	d="
M176.500000,281.000000 
	C173.166656,291.833344 169.833328,302.666656 166.500000,313.500000 
"/>
<path fill="none" opacity="1.000000" stroke="#000000" stroke-linecap="round" stroke-linejoin="round" stroke-width="7.000000"
	d="
M291.000000,120.500000 
	C292.422211,124.075661 290.831055,127.542305 290.390442,130.985977 
	C289.849823,135.211426 288.500000,139.333328 287.500000,143.500000 
"/>
<path fill="none" opacity="1.000000" stroke="#000000" stroke-linecap="round" stroke-linejoin="round" stroke-width="10.000000"
	d="
M475.000000,266.500000 
	C477.783813,264.558563 478.450714,261.578186 479.018402,258.503387 
	C479.527435,255.746567 479.914520,252.931625 481.647583,250.455582 
	C477.598999,245.381088 471.223572,244.935699 465.892517,242.763840 
	C463.549042,241.809113 460.724518,241.727859 458.479706,240.026794 
	C457.603790,239.363022 456.280487,238.352631 455.535675,238.605194 
	C450.748535,240.228531 447.113617,235.462372 442.492920,236.467392 
	C441.264160,236.734619 440.439453,235.684311 439.471893,235.042358 
	C437.738220,233.892120 435.878174,232.243317 433.992218,232.131592 
	C426.020416,231.659271 418.937408,228.200394 411.528900,225.906631 
	C408.021881,224.820786 404.622528,226.679321 400.901581,224.683487 
	C391.971985,219.893890 381.625793,218.680679 372.400330,214.205475 
	C367.289520,211.726273 361.188538,211.227570 355.489990,210.048340 
	C352.957520,209.524261 350.863251,211.438019 348.500000,212.000000 
"/>
<path fill="none" opacity="1.000000" stroke="#000000" stroke-linecap="round" stroke-linejoin="round" stroke-width="6.000000"
	d="
M396.500000,224.500000 
	C393.833344,230.666672 391.061920,236.791733 388.583435,243.033127 
	C388.052216,244.370895 385.088379,246.906281 389.500000,247.500000 
"/>
<path fill="none" opacity="1.000000" stroke="#000000" stroke-linecap="round" stroke-linejoin="round" stroke-width="8.000000"
	d="
M163.500000,194.000000 
	C163.364975,200.324890 159.221069,205.228226 157.345932,210.949509 
	C156.750580,212.766052 156.105286,214.790283 155.000000,216.500000 
"/>
<path fill="none" opacity="1.000000" stroke="#000000" stroke-linecap="round" stroke-linejoin="round" stroke-width="6.000000"
	d="
M318.500000,288.500000 
	C316.690796,293.165924 316.416290,298.148407 315.458893,302.991882 
	C314.949554,305.568665 315.341675,308.876923 311.500000,309.500000 
"/>
<path fill="none" opacity="1.000000" stroke="#000000" stroke-linecap="round" stroke-linejoin="round" stroke-width="8.000000"
	d="
M516.500000,124.500000 
	C516.636963,132.665497 514.283630,140.111557 510.000000,147.000000 
"/>
<path fill="none" opacity="1.000000" stroke="#000000" stroke-linecap="round" stroke-linejoin="round" stroke-width="7.000000"
	d="
M347.500000,88.500000 
	C347.112213,94.146149 343.998505,98.997208 342.689270,104.425049 
	C342.070038,106.992249 341.168671,109.896584 340.000000,112.500000 
"/>
<path fill="none" opacity="1.000000" stroke="#000000" stroke-linecap="round" stroke-linejoin="round" stroke-width="7.000000"
	d="
M491.000000,256.500000 
	C489.333344,261.666656 487.412476,266.770599 486.114807,272.028320 
	C485.527893,274.406250 484.830688,276.415344 483.000000,278.000000 
"/>
<path fill="none" opacity="1.000000" stroke="#000000" stroke-linecap="round" stroke-linejoin="round" stroke-width="6.000000"
	d="
M161.500000,282.000000 
	C159.953278,289.949066 155.396545,297.109528 155.428101,305.500275 
	C155.433746,306.998383 154.500000,308.500000 154.000000,310.000000 
"/>
<path fill="none" opacity="1.000000" stroke="#000000" stroke-linecap="round" stroke-linejoin="round" stroke-width="8.000000"
	d="
M461.500000,102.500000 
	C457.178528,108.557663 455.040375,115.790977 451.000000,122.000000 
"/>
<path fill="none" opacity="1.000000" stroke="#000000" stroke-linecap="round" stroke-linejoin="round" stroke-width="9.000000"
	d="
M480.500000,280.000000 
	C480.390076,286.444061 482.118011,292.310516 486.000000,297.500000 
"/>
<path fill="none" opacity="1.000000" stroke="#000000" stroke-linecap="round" stroke-linejoin="round" stroke-width="7.000000"
	d="
M328.500000,207.000000 
	C328.134674,211.077225 324.626099,214.152008 324.948395,218.503815 
	C325.106720,220.641663 325.107300,222.723175 326.500000,224.500000 
"/>
<path fill="none" opacity="1.000000" stroke="#000000" stroke-linecap="round" stroke-linejoin="round" stroke-width="6.000000"
	d="
M561.000000,296.000000 
	C558.608154,298.328857 556.523438,300.967285 557.611877,304.465179 
	C558.120667,306.100311 556.880432,306.531342 556.430908,306.920074 
	C550.414124,312.122742 550.189453,319.661346 548.631958,326.529938 
	C547.750366,330.418060 547.220825,333.873932 542.500000,334.500000 
"/>
<path fill="none" opacity="1.000000" stroke="#000000" stroke-linecap="round" stroke-linejoin="round" stroke-width="9.000000"
	d="
M482.000000,251.000000 
	C483.709808,250.389160 485.503174,251.402252 486.399292,252.124878 
	C491.755951,256.444458 498.470581,257.468628 504.366699,260.279602 
	C509.765930,262.853729 515.583679,264.808502 520.557190,268.421295 
	C523.311890,270.422302 524.160950,273.281616 525.500000,276.000000 
"/>
<path fill="none" opacity="1.000000" stroke="#000000" stroke-linecap="round" stroke-linejoin="round" stroke-width="8.000000"
	d="
M446.500000,107.500000 
	C439.940491,109.085724 438.498230,114.831917 436.595520,120.034935 
	C436.039948,121.554214 436.326813,123.432030 435.007568,125.194275 
	C431.061676,126.963257 427.286438,124.585846 423.532928,122.925583 
	C420.883759,121.753807 420.725281,118.103653 423.029999,115.022446 
	C424.750427,112.722374 426.787201,110.657524 428.000000,108.000000 
"/>
<path fill="none" opacity="1.000000" stroke="#000000" stroke-linecap="round" stroke-linejoin="round" stroke-width="8.000000"
	d="
M380.750000,359.500000 
	C382.709106,363.797974 386.705322,366.394958 389.599823,369.917999 
	C391.594025,372.345215 391.336548,374.095215 389.480133,375.980438 
	C385.427704,380.095795 382.473389,385.361176 377.000000,388.000000 
"/>
<path fill="none" opacity="1.000000" stroke="#000000" stroke-linecap="round" stroke-linejoin="round" stroke-width="6.000000"
	d="
M145.000000,201.500000 
	C144.333328,205.500000 143.696442,209.505295 142.986969,213.497681 
	C142.650482,215.391220 141.746246,216.759506 139.500000,216.500000 
"/>
<path fill="none" opacity="1.000000" stroke="#000000" stroke-linecap="round" stroke-linejoin="round" stroke-width="8.000000"
	d="
M402.000000,357.500000 
	C399.490662,359.302185 397.784515,361.826782 396.574677,364.533386 
	C395.325317,367.328217 393.582275,369.467041 391.000000,371.000000 
"/>
<path fill="none" opacity="1.000000" stroke="#000000" stroke-linecap="round" stroke-linejoin="round" stroke-width="8.000000"
	d="
M360.000000,93.000000 
	C355.793030,97.125633 354.731079,102.729240 353.030243,108.009735 
	C352.189392,110.620300 351.666687,113.333336 351.000000,116.000000 
"/>
<path fill="none" opacity="1.000000" stroke="#000000" stroke-linecap="round" stroke-linejoin="round" stroke-width="7.000000"
	d="
M393.500000,79.500000 
	C392.144501,79.559387 390.649628,79.032265 389.973328,80.990791 
	C388.448944,85.405365 385.773224,89.509109 386.500000,94.500000 
"/>
<path fill="none" opacity="1.000000" stroke="#000000" stroke-linecap="round" stroke-linejoin="round" stroke-width="7.000000"
	d="
M578.000000,207.000015 
	C577.500000,206.666687 576.908997,206.416992 576.513916,205.987228 
	C571.981140,201.057083 570.499023,199.038162 566.495850,207.998138 
	C564.347290,212.807022 564.860168,218.408066 562.000000,223.000000 
"/>
<path fill="none" opacity="1.000000" stroke="#000000" stroke-linecap="round" stroke-linejoin="round" stroke-width="7.000000"
	d="
M551.000000,289.500000 
	C547.045227,295.821838 547.935425,303.091858 547.023804,310.003143 
	C546.694946,312.495941 549.190674,312.791504 550.500000,314.000000 
"/>
<path fill="none" opacity="1.000000" stroke="#000000" stroke-linecap="round" stroke-linejoin="round" stroke-width="8.000000"
	d="
M390.000000,343.000000 
	C394.776855,344.556824 396.329193,350.476166 401.500000,351.500000 
	C401.317047,358.736145 408.857544,361.765808 410.472443,368.007141 
	C410.674530,368.788177 410.500000,369.666656 410.500000,370.500000 
"/>
<path fill="none" opacity="1.000000" stroke="#000000" stroke-linecap="round" stroke-linejoin="round" stroke-width="8.000000"
	d="
M409.500000,74.750000 
	C404.829071,79.744797 402.711670,85.746620 402.500000,92.500000 
"/>
<path fill="none" opacity="1.000000" stroke="#000000" stroke-linecap="round" stroke-linejoin="round" stroke-width="7.000000"
	d="
M502.750000,125.000000 
	C502.417938,131.096741 499.976440,136.681183 498.500000,142.500000 
"/>
</svg>